 <svg  version="1.0" xmlns="http://www.w3.org/2000/svg"  width="300.000000pt" height="106.000000pt" viewBox="0 0 300.000000 106.000000"  preserveAspectRatio="xMidYMid meet">  <g transform="translate(0.000000,106.000000) scale(0.100000,-0.100000)" fill="#9c3a3a" stroke="none"> <path d="M858 776 c-36 -13 -86 -47 -323 -220 -224 -165 -342 -199 -421 -125 l-24 22 0 -31 c0 -43 44 -91 93 -102 84 -19 205 34 402 177 247 179 313 218 333 198 4 -3 -21 -118 -56 -253 -34 -136 -65 -267 -68 -292 -9 -84 43 -130 84 -73 10 15 64 119 119 229 55 111 116 228 136 261 41 67 46 85 19 60 -10 -10 -21 -15 -24 -12 -2 3 -5 -1 -5 -8 0 -6 -12 -31 -26 -55 -25 -39 -142 -268 -190 -372 -27 -59 -46 -80 -70 -80 -18 0 -19 5 -14 63 3 34 13 89 22 122 9 33 23 87 32 120 9 33 19 62 22 65 3 3 7 21 9 40 2 19 9 46 16 60 17 35 20 118 6 136 -27 32 -85 10 -215 -83 -33 -24 -64 -46 -70 -51 -37 -29 -75 -52 -84 -52 -20 0 -11 15 19 33 16 10 35 23 42 30 29 28 138 108 194 141 71 43 116 47 139 12 18 -26 16 -57 -14 -206 -10 -52 -21 -115 -25 -140 l-5 -45 15 40 c47 123 79 337 56 371 -10 16 -48 34 -69 34 -10 -1 -35 -7 -55 -14z m-303 -266 c3 -5 -1 -10 -9 -10 -9 0 -16 -4 -16 -10 0 -5 -6 -10 -14 -10 -8 0 -16 -6 -19 -12 -3 -7 -22 -22 -43 -33 -22 -10 -50 -27 -64 -36 -49 -32 -147 -62 -184 -55 -46 9 -53 21 -13 24 101 8 177 38 285 112 61 43 68 45 77 30z"/> <path d="M1161 744 c-18 -19 -43 -53 -57 -75 -42 -67 -143 -253 -159 -295 l-16 -39 26 30 c15 17 31 39 36 50 5 11 29 54 53 95 25 41 55 95 68 119 13 24 39 62 59 84 l35 41 22 -22 c15 -15 21 -29 17 -45 -9 -34 -13 -60 -14 -80 -1 -12 -6 -16 -13 -11 -10 5 -10 4 -2 -5 11 -12 -2 -89 -17 -101 -3 -3 -9 -16 -13 -30 -3 -14 -3 -19 0 -12 8 17 27 15 21 -3 -4 -8 -2 -17 2 -19 9 -6 45 157 57 251 12 99 -45 136 -105 67z"/> <path d="M1425 641 c-41 -25 -105 -94 -154 -165 -43 -63 -53 -90 -23 -63 10 10 21 15 24 12 9 -10 -29 -75 -57 -97 -24 -19 -28 -19 -42 -5 -14 14 -15 26 -5 94 6 43 15 79 20 81 6 2 8 12 5 22 -3 11 -1 20 5 20 11 0 11 17 1 35 -4 6 -5 20 -4 33 4 51 -15 1 -34 -91 -39 -182 -31 -241 33 -235 26 3 40 17 93 93 107 155 193 234 193 178 0 -10 -11 -81 -25 -157 -29 -164 -31 -203 -9 -234 35 -50 66 -21 182 169 67 111 109 165 119 155 3 -3 -2 -51 -11 -105 -10 -57 -15 -113 -11 -131 7 -33 42 -57 69 -47 17 7 196 242 196 258 0 18 -69 -45 -81 -74 -6 -15 -25 -37 -40 -48 -16 -11 -27 -24 -24 -28 7 -12 -49 -71 -68 -71 -15 0 -24 26 -26 83 -1 19 3 26 11 21 8 -5 9 3 5 27 -5 24 -4 30 3 19 5 -8 10 -10 11 -5 1 6 5 -8 8 -30 6 -37 8 -33 25 58 15 81 16 102 6 128 -27 65 -89 56 -153 -23 -48 -59 -148 -220 -141 -227 3 -3 14 5 25 18 l19 23 0 -27 c0 -35 -64 -125 -89 -125 -17 0 -24 47 -16 98 4 26 7 57 6 69 0 12 4 25 10 29 8 4 9 -1 4 -16 -5 -15 -4 -20 4 -16 7 5 11 -4 12 -26 l1 -33 9 30 c16 53 39 199 39 248 0 83 -59 120 -125 78z m79 -30 c20 -22 31 -65 13 -55 -7 4 -20 14 -29 22 -22 18 -56 10 -91 -22 -15 -14 -29 -21 -32 -17 -7 13 82 91 103 91 10 0 26 -8 36 -19z m294 -121 c4 -52 -5 -93 -18 -85 -7 4 -6 13 0 26 8 15 7 25 -7 44 -21 29 -40 31 -65 8 -33 -29 -22 12 13 48 28 28 32 30 52 16 16 -10 23 -26 25 -57z"/> <path d="M1959 529 c-55 -56 -149 -185 -149 -203 0 -6 14 4 30 22 17 18 30 27 31 20 0 -7 7 2 15 19 27 61 113 153 143 150 23 -1 22 0 23 -134 1 -34 5 -60 9 -58 4 3 10 -3 13 -13 4 -10 17 -29 29 -40 26 -24 114 -45 123 -30 3 5 13 7 22 3 8 -3 19 0 23 6 4 6 20 12 37 13 17 0 28 4 25 9 -4 6 12 11 30 8 4 0 7 3 7 9 0 5 5 10 11 10 5 0 7 -5 3 -11 -4 -8 1 -9 17 -5 13 4 3 -4 -22 -17 -61 -32 -81 -39 -74 -27 3 6 2 10 -4 10 -5 0 -14 -7 -19 -16 -5 -9 -24 -17 -43 -19 -19 -2 -38 -4 -44 -6 -20 -5 -95 13 -89 22 3 5 -2 9 -10 9 -9 0 -16 7 -16 15 0 8 -4 15 -10 15 -5 0 -10 9 -10 19 0 11 -5 21 -11 23 -6 2 -12 25 -13 51 0 26 -4 47 -8 47 -3 0 -9 8 -11 18 -3 9 -5 -6 -6 -34 -2 -102 45 -183 119 -205 69 -21 144 0 340 96 96 47 199 90 227 96 58 12 130 1 184 -27 44 -22 47 -10 9 26 -104 97 -197 92 -445 -26 -199 -94 -266 -111 -313 -78 -35 24 -43 50 -53 156 -12 147 -37 162 -120 77z"/> </g> </svg> 